<?xml version="1.0" encoding="UTF-8" standalone="no"?>
<!DOCTYPE svg PUBLIC "-//W3C//DTD SVG 1.1//EN"
 "http://www.w3.org/Graphics/SVG/1.1/DTD/svg11.dtd">
<!-- Generated by graphviz version 2.38.0 (20140413.2041)
 -->
<!-- Title: controllers_diagram Pages: 1 -->
<svg width="946pt" height="1000pt"
 viewBox="0.00 0.00 946.37 1000.00" xmlns="http://www.w3.org/2000/svg" xmlns:xlink="http://www.w3.org/1999/xlink">
<g id="graph0" class="graph" transform="scale(1 1) rotate(0) translate(412.1 554.5)">
<title>controllers_diagram</title>
<polygon fill="none" stroke="none" points="-412.1,445.5 -412.1,-554.5 534.269,-554.5 534.269,445.5 -412.1,445.5"/>
<!-- _diagram_info -->
<g id="node1" class="node"><title>_diagram_info</title>
<text text-anchor="start" x="8.31226" y="212.9" font-family="Times,serif" font-size="13.00">Controllers diagram</text>
<text text-anchor="start" x="8.31226" y="225.9" font-family="Times,serif" font-size="13.00">Date: Aug 30 2015 &#45; 14:00</text>
<text text-anchor="start" x="8.31226" y="238.9" font-family="Times,serif" font-size="13.00">Migration version: 20150808025510</text>
<text text-anchor="start" x="8.31226" y="251.9" font-family="Times,serif" font-size="13.00">Generated by RailRoady 1.3.1</text>
<text text-anchor="start" x="8.31226" y="264.9" font-family="Times,serif" font-size="13.00">http://railroady.prestonlee.com</text>
</g>
<!-- ApplicationController -->
<g id="node2" class="node"><title>ApplicationController</title>
<path fill="none" stroke="black" d="M199.179,390C199.179,390 314.821,390 314.821,390 320.821,390 326.821,384 326.821,378 326.821,378 326.821,310 326.821,310 326.821,304 320.821,298 314.821,298 314.821,298 199.179,298 199.179,298 193.179,298 187.179,304 187.179,310 187.179,310 187.179,378 187.179,378 187.179,384 193.179,390 199.179,390"/>
<text text-anchor="middle" x="257" y="313.2" font-family="Times,serif" font-size="14.00">ApplicationController</text>
<polyline fill="none" stroke="black" points="187.179,320 326.821,320 "/>
<polyline fill="none" stroke="black" points="187.179,344 326.821,344 "/>
<polyline fill="none" stroke="black" points="187.179,368 326.821,368 "/>
<text text-anchor="start" x="195.179" y="383.2" font-family="Times,serif" font-size="14.00">_layout</text>
</g>
<!-- AppviewsController -->
<g id="node3" class="node"><title>AppviewsController</title>
<path fill="none" stroke="black" d="M113.841,101C113.841,101 220.159,101 220.159,101 226.159,101 232.159,95 232.159,89 232.159,89 232.159,-173 232.159,-173 232.159,-179 226.159,-185 220.159,-185 220.159,-185 113.841,-185 113.841,-185 107.841,-185 101.841,-179 101.841,-173 101.841,-173 101.841,89 101.841,89 101.841,95 107.841,101 113.841,101"/>
<text text-anchor="middle" x="167" y="-169.8" font-family="Times,serif" font-size="14.00">AppviewsController</text>
<polyline fill="none" stroke="black" points="101.841,-163 232.159,-163 "/>
<text text-anchor="start" x="109.841" y="-147.8" font-family="Times,serif" font-size="14.00">article</text>
<text text-anchor="start" x="109.841" y="-133.8" font-family="Times,serif" font-size="14.00">blog</text>
<text text-anchor="start" x="109.841" y="-119.8" font-family="Times,serif" font-size="14.00">calendar</text>
<text text-anchor="start" x="109.841" y="-105.8" font-family="Times,serif" font-size="14.00">clients</text>
<text text-anchor="start" x="109.841" y="-91.8" font-family="Times,serif" font-size="14.00">contacts</text>
<text text-anchor="start" x="109.841" y="-77.8" font-family="Times,serif" font-size="14.00">faq</text>
<text text-anchor="start" x="109.841" y="-63.8" font-family="Times,serif" font-size="14.00">file_manager</text>
<text text-anchor="start" x="109.841" y="-49.8" font-family="Times,serif" font-size="14.00">issue_tracker</text>
<text text-anchor="start" x="109.841" y="-35.8" font-family="Times,serif" font-size="14.00">outlook_view</text>
<text text-anchor="start" x="109.841" y="-21.8" font-family="Times,serif" font-size="14.00">pin_board</text>
<text text-anchor="start" x="109.841" y="-7.8" font-family="Times,serif" font-size="14.00">profile</text>
<text text-anchor="start" x="109.841" y="6.2" font-family="Times,serif" font-size="14.00">project_detail</text>
<text text-anchor="start" x="109.841" y="20.2" font-family="Times,serif" font-size="14.00">projects</text>
<text text-anchor="start" x="109.841" y="34.2" font-family="Times,serif" font-size="14.00">teams_board</text>
<text text-anchor="start" x="109.841" y="48.2" font-family="Times,serif" font-size="14.00">timeline</text>
<polyline fill="none" stroke="black" points="101.841,55 232.159,55 "/>
<polyline fill="none" stroke="black" points="101.841,79 232.159,79 "/>
<text text-anchor="start" x="109.841" y="94.2" font-family="Times,serif" font-size="14.00">_layout</text>
</g>
<!-- CommerceController -->
<g id="node4" class="node"><title>CommerceController</title>
<path fill="none" stroke="black" d="M-379.483,-392C-379.483,-392 -268.517,-392 -268.517,-392 -262.517,-392 -256.517,-398 -256.517,-404 -256.517,-404 -256.517,-512 -256.517,-512 -256.517,-518 -262.517,-524 -268.517,-524 -268.517,-524 -379.483,-524 -379.483,-524 -385.483,-524 -391.483,-518 -391.483,-512 -391.483,-512 -391.483,-404 -391.483,-404 -391.483,-398 -385.483,-392 -379.483,-392"/>
<text text-anchor="middle" x="-324" y="-508.8" font-family="Times,serif" font-size="14.00">CommerceController</text>
<polyline fill="none" stroke="black" points="-391.483,-502 -256.517,-502 "/>
<text text-anchor="start" x="-383.483" y="-486.8" font-family="Times,serif" font-size="14.00">orders</text>
<text text-anchor="start" x="-383.483" y="-472.8" font-family="Times,serif" font-size="14.00">product_edit</text>
<text text-anchor="start" x="-383.483" y="-458.8" font-family="Times,serif" font-size="14.00">products_grid</text>
<text text-anchor="start" x="-383.483" y="-444.8" font-family="Times,serif" font-size="14.00">products_list</text>
<polyline fill="none" stroke="black" points="-391.483,-438 -256.517,-438 "/>
<polyline fill="none" stroke="black" points="-391.483,-414 -256.517,-414 "/>
<text text-anchor="start" x="-383.483" y="-398.8" font-family="Times,serif" font-size="14.00">_layout</text>
</g>
<!-- ContactsController -->
<g id="node5" class="node"><title>ContactsController</title>
<path fill="none" stroke="black" d="M419.731,-341C419.731,-341 518.269,-341 518.269,-341 524.269,-341 530.269,-347 530.269,-353 530.269,-353 530.269,-433 530.269,-433 530.269,-439 524.269,-445 518.269,-445 518.269,-445 419.731,-445 419.731,-445 413.731,-445 407.731,-439 407.731,-433 407.731,-433 407.731,-353 407.731,-353 407.731,-347 413.731,-341 419.731,-341"/>
<text text-anchor="middle" x="469" y="-429.8" font-family="Times,serif" font-size="14.00">ContactsController</text>
<polyline fill="none" stroke="black" points="407.731,-423 530.269,-423 "/>
<text text-anchor="start" x="415.731" y="-407.8" font-family="Times,serif" font-size="14.00">create</text>
<text text-anchor="start" x="415.731" y="-393.8" font-family="Times,serif" font-size="14.00">new</text>
<polyline fill="none" stroke="black" points="407.731,-387 530.269,-387 "/>
<polyline fill="none" stroke="black" points="407.731,-363 530.269,-363 "/>
<text text-anchor="start" x="415.731" y="-347.8" font-family="Times,serif" font-size="14.00">_layout</text>
</g>
<!-- CssanimationsController -->
<g id="node6" class="node"><title>CssanimationsController</title>
<path fill="none" stroke="black" d="M12.3931,390C12.3931,390 143.607,390 143.607,390 149.607,390 155.607,384 155.607,378 155.607,378 155.607,312 155.607,312 155.607,306 149.607,300 143.607,300 143.607,300 12.3931,300 12.3931,300 6.39307,300 0.393066,306 0.393066,312 0.393066,312 0.393066,378 0.393066,378 0.393066,384 6.39307,390 12.3931,390"/>
<text text-anchor="middle" x="78" y="315.2" font-family="Times,serif" font-size="14.00">CssanimationsController</text>
<polyline fill="none" stroke="black" points="0.393066,322 155.607,322 "/>
<text text-anchor="start" x="8.39307" y="337.2" font-family="Times,serif" font-size="14.00">index</text>
<polyline fill="none" stroke="black" points="0.393066,344 155.607,344 "/>
<polyline fill="none" stroke="black" points="0.393066,368 155.607,368 "/>
<text text-anchor="start" x="8.39307" y="383.2" font-family="Times,serif" font-size="14.00">_layout</text>
</g>
<!-- DashboardsController -->
<g id="node7" class="node"><title>DashboardsController</title>
<path fill="none" stroke="black" d="M-242.821,186C-242.821,186 -127.179,186 -127.179,186 -121.179,186 -115.179,180 -115.179,174 -115.179,174 -115.179,52 -115.179,52 -115.179,46 -121.179,40 -127.179,40 -127.179,40 -242.821,40 -242.821,40 -248.821,40 -254.821,46 -254.821,52 -254.821,52 -254.821,174 -254.821,174 -254.821,180 -248.821,186 -242.821,186"/>
<text text-anchor="middle" x="-185" y="55.2" font-family="Times,serif" font-size="14.00">DashboardsController</text>
<polyline fill="none" stroke="black" points="-254.821,62 -115.179,62 "/>
<text text-anchor="start" x="-246.821" y="77.2" font-family="Times,serif" font-size="14.00">dashboard_1</text>
<text text-anchor="start" x="-246.821" y="91.2" font-family="Times,serif" font-size="14.00">dashboard_2</text>
<text text-anchor="start" x="-246.821" y="105.2" font-family="Times,serif" font-size="14.00">dashboard_3</text>
<text text-anchor="start" x="-246.821" y="119.2" font-family="Times,serif" font-size="14.00">dashboard_4</text>
<text text-anchor="start" x="-246.821" y="133.2" font-family="Times,serif" font-size="14.00">dashboard_4_1</text>
<polyline fill="none" stroke="black" points="-254.821,140 -115.179,140 "/>
<polyline fill="none" stroke="black" points="-254.821,164 -115.179,164 "/>
<text text-anchor="start" x="-246.821" y="179.2" font-family="Times,serif" font-size="14.00">_layout</text>
</g>
<!-- Doctors::ConsultsController -->
<g id="node8" class="node"><title>Doctors::ConsultsController</title>
<path fill="none" stroke="black" d="M283.669,-69C283.669,-69 434.331,-69 434.331,-69 440.331,-69 446.331,-75 446.331,-81 446.331,-81 446.331,-161 446.331,-161 446.331,-167 440.331,-173 434.331,-173 434.331,-173 283.669,-173 283.669,-173 277.669,-173 271.669,-167 271.669,-161 271.669,-161 271.669,-81 271.669,-81 271.669,-75 277.669,-69 283.669,-69"/>
<text text-anchor="middle" x="359" y="-157.8" font-family="Times,serif" font-size="14.00">Doctors::ConsultsController</text>
<polyline fill="none" stroke="black" points="271.669,-151 446.331,-151 "/>
<text text-anchor="start" x="279.669" y="-135.8" font-family="Times,serif" font-size="14.00">create</text>
<text text-anchor="start" x="279.669" y="-121.8" font-family="Times,serif" font-size="14.00">index</text>
<polyline fill="none" stroke="black" points="271.669,-115 446.331,-115 "/>
<polyline fill="none" stroke="black" points="271.669,-91 446.331,-91 "/>
<text text-anchor="start" x="279.669" y="-75.8" font-family="Times,serif" font-size="14.00">_layout</text>
</g>
<!-- FormsController -->
<g id="node9" class="node"><title>FormsController</title>
<path fill="none" stroke="black" d="M-344.666,-205C-344.666,-205 -259.334,-205 -259.334,-205 -253.334,-205 -247.334,-211 -247.334,-217 -247.334,-217 -247.334,-339 -247.334,-339 -247.334,-345 -253.334,-351 -259.334,-351 -259.334,-351 -344.666,-351 -344.666,-351 -350.666,-351 -356.666,-345 -356.666,-339 -356.666,-339 -356.666,-217 -356.666,-217 -356.666,-211 -350.666,-205 -344.666,-205"/>
<text text-anchor="middle" x="-302" y="-335.8" font-family="Times,serif" font-size="14.00">FormsController</text>
<polyline fill="none" stroke="black" points="-356.666,-329 -247.334,-329 "/>
<text text-anchor="start" x="-348.666" y="-313.8" font-family="Times,serif" font-size="14.00">advanced</text>
<text text-anchor="start" x="-348.666" y="-299.8" font-family="Times,serif" font-size="14.00">basic_forms</text>
<text text-anchor="start" x="-348.666" y="-285.8" font-family="Times,serif" font-size="14.00">file_upload</text>
<text text-anchor="start" x="-348.666" y="-271.8" font-family="Times,serif" font-size="14.00">text_editor</text>
<text text-anchor="start" x="-348.666" y="-257.8" font-family="Times,serif" font-size="14.00">wizard</text>
<polyline fill="none" stroke="black" points="-356.666,-251 -247.334,-251 "/>
<polyline fill="none" stroke="black" points="-356.666,-227 -247.334,-227 "/>
<text text-anchor="start" x="-348.666" y="-211.8" font-family="Times,serif" font-size="14.00">_layout</text>
</g>
<!-- GalleryController -->
<g id="node10" class="node"><title>GalleryController</title>
<path fill="none" stroke="black" d="M419.521,-205C419.521,-205 516.479,-205 516.479,-205 522.479,-205 528.479,-211 528.479,-217 528.479,-217 528.479,-297 528.479,-297 528.479,-303 522.479,-309 516.479,-309 516.479,-309 419.521,-309 419.521,-309 413.521,-309 407.521,-303 407.521,-297 407.521,-297 407.521,-217 407.521,-217 407.521,-211 413.521,-205 419.521,-205"/>
<text text-anchor="middle" x="468" y="-293.8" font-family="Times,serif" font-size="14.00">GalleryController</text>
<polyline fill="none" stroke="black" points="407.521,-287 528.479,-287 "/>
<text text-anchor="start" x="415.521" y="-271.8" font-family="Times,serif" font-size="14.00">basic_gallery</text>
<text text-anchor="start" x="415.521" y="-257.8" font-family="Times,serif" font-size="14.00">bootstrap_carusela</text>
<polyline fill="none" stroke="black" points="407.521,-251 528.479,-251 "/>
<polyline fill="none" stroke="black" points="407.521,-227 528.479,-227 "/>
<text text-anchor="start" x="415.521" y="-211.8" font-family="Times,serif" font-size="14.00">_layout</text>
</g>
<!-- GraphsController -->
<g id="node11" class="node"><title>GraphsController</title>
<path fill="none" stroke="black" d="M-225.99,-1C-225.99,-1 -136.01,-1 -136.01,-1 -130.01,-1 -124.01,-7 -124.01,-13 -124.01,-13 -124.01,-163 -124.01,-163 -124.01,-169 -130.01,-175 -136.01,-175 -136.01,-175 -225.99,-175 -225.99,-175 -231.99,-175 -237.99,-169 -237.99,-163 -237.99,-163 -237.99,-13 -237.99,-13 -237.99,-7 -231.99,-1 -225.99,-1"/>
<text text-anchor="middle" x="-181" y="-159.8" font-family="Times,serif" font-size="14.00">GraphsController</text>
<polyline fill="none" stroke="black" points="-237.99,-153 -124.01,-153 "/>
<text text-anchor="start" x="-229.99" y="-137.8" font-family="Times,serif" font-size="14.00">chartist</text>
<text text-anchor="start" x="-229.99" y="-123.8" font-family="Times,serif" font-size="14.00">chartjs</text>
<text text-anchor="start" x="-229.99" y="-109.8" font-family="Times,serif" font-size="14.00">flot</text>
<text text-anchor="start" x="-229.99" y="-95.8" font-family="Times,serif" font-size="14.00">morris</text>
<text text-anchor="start" x="-229.99" y="-81.8" font-family="Times,serif" font-size="14.00">peity</text>
<text text-anchor="start" x="-229.99" y="-67.8" font-family="Times,serif" font-size="14.00">rickshaw</text>
<text text-anchor="start" x="-229.99" y="-53.8" font-family="Times,serif" font-size="14.00">sparkline</text>
<polyline fill="none" stroke="black" points="-237.99,-47 -124.01,-47 "/>
<polyline fill="none" stroke="black" points="-237.99,-23 -124.01,-23 "/>
<text text-anchor="start" x="-229.99" y="-7.8" font-family="Times,serif" font-size="14.00">_layout</text>
</g>
<!-- GridoptionsController -->
<g id="node12" class="node"><title>GridoptionsController</title>
<path fill="none" stroke="black" d="M368.783,390C368.783,390 485.217,390 485.217,390 491.217,390 497.217,384 497.217,378 497.217,378 497.217,312 497.217,312 497.217,306 491.217,300 485.217,300 485.217,300 368.783,300 368.783,300 362.783,300 356.783,306 356.783,312 356.783,312 356.783,378 356.783,378 356.783,384 362.783,390 368.783,390"/>
<text text-anchor="middle" x="427" y="315.2" font-family="Times,serif" font-size="14.00">GridoptionsController</text>
<polyline fill="none" stroke="black" points="356.783,322 497.217,322 "/>
<text text-anchor="start" x="364.783" y="337.2" font-family="Times,serif" font-size="14.00">index</text>
<polyline fill="none" stroke="black" points="356.783,344 497.217,344 "/>
<polyline fill="none" stroke="black" points="356.783,368 497.217,368 "/>
<text text-anchor="start" x="364.783" y="383.2" font-family="Times,serif" font-size="14.00">_layout</text>
</g>
<!-- LandingController -->
<g id="node13" class="node"><title>LandingController</title>
<path fill="none" stroke="black" d="M-396.1,118C-396.1,118 -299.9,118 -299.9,118 -293.9,118 -287.9,112 -287.9,106 -287.9,106 -287.9,40 -287.9,40 -287.9,34 -293.9,28 -299.9,28 -299.9,28 -396.1,28 -396.1,28 -402.1,28 -408.1,34 -408.1,40 -408.1,40 -408.1,106 -408.1,106 -408.1,112 -402.1,118 -396.1,118"/>
<text text-anchor="middle" x="-348" y="43.2" font-family="Times,serif" font-size="14.00">LandingController</text>
<polyline fill="none" stroke="black" points="-408.1,50 -287.9,50 "/>
<text text-anchor="start" x="-400.1" y="65.2" font-family="Times,serif" font-size="14.00">index</text>
<polyline fill="none" stroke="black" points="-408.1,72 -287.9,72 "/>
<polyline fill="none" stroke="black" points="-408.1,96 -287.9,96 "/>
<text text-anchor="start" x="-400.1" y="111.2" font-family="Times,serif" font-size="14.00">_layout</text>
</g>
<!-- LayoutsoptionsController -->
<g id="node14" class="node"><title>LayoutsoptionsController</title>
<path fill="none" stroke="black" d="M-208.938,322C-208.938,322 -73.062,322 -73.062,322 -67.062,322 -61.062,316 -61.062,310 -61.062,310 -61.062,230 -61.062,230 -61.062,224 -67.062,218 -73.062,218 -73.062,218 -208.938,218 -208.938,218 -214.938,218 -220.938,224 -220.938,230 -220.938,230 -220.938,310 -220.938,310 -220.938,316 -214.938,322 -208.938,322"/>
<text text-anchor="middle" x="-141" y="233.2" font-family="Times,serif" font-size="14.00">LayoutsoptionsController</text>
<polyline fill="none" stroke="black" points="-220.938,240 -61.062,240 "/>
<text text-anchor="start" x="-212.938" y="255.2" font-family="Times,serif" font-size="14.00">index</text>
<text text-anchor="start" x="-212.938" y="269.2" font-family="Times,serif" font-size="14.00">off_canvas</text>
<polyline fill="none" stroke="black" points="-220.938,276 -61.062,276 "/>
<polyline fill="none" stroke="black" points="-220.938,300 -61.062,300 "/>
<text text-anchor="start" x="-212.938" y="315.2" font-family="Times,serif" font-size="14.00">_layout</text>
</g>
<!-- MailboxController -->
<g id="node15" class="node"><title>MailboxController</title>
<path fill="none" stroke="black" d="M-209.035,-222C-209.035,-222 -108.965,-222 -108.965,-222 -102.965,-222 -96.9653,-228 -96.9653,-234 -96.9653,-234 -96.9653,-384 -96.9653,-384 -96.9653,-390 -102.965,-396 -108.965,-396 -108.965,-396 -209.035,-396 -209.035,-396 -215.035,-396 -221.035,-390 -221.035,-384 -221.035,-384 -221.035,-234 -221.035,-234 -221.035,-228 -215.035,-222 -209.035,-222"/>
<text text-anchor="middle" x="-159" y="-380.8" font-family="Times,serif" font-size="14.00">MailboxController</text>
<polyline fill="none" stroke="black" points="-221.035,-374 -96.9653,-374 "/>
<text text-anchor="start" x="-213.035" y="-358.8" font-family="Times,serif" font-size="14.00">alert_email</text>
<text text-anchor="start" x="-213.035" y="-344.8" font-family="Times,serif" font-size="14.00">basic_action_email</text>
<text text-anchor="start" x="-213.035" y="-330.8" font-family="Times,serif" font-size="14.00">billing_email</text>
<text text-anchor="start" x="-213.035" y="-316.8" font-family="Times,serif" font-size="14.00">compose_email</text>
<text text-anchor="start" x="-213.035" y="-302.8" font-family="Times,serif" font-size="14.00">email_templates</text>
<text text-anchor="start" x="-213.035" y="-288.8" font-family="Times,serif" font-size="14.00">email_view</text>
<text text-anchor="start" x="-213.035" y="-274.8" font-family="Times,serif" font-size="14.00">inbox</text>
<polyline fill="none" stroke="black" points="-221.035,-268 -96.9653,-268 "/>
<polyline fill="none" stroke="black" points="-221.035,-244 -96.9653,-244 "/>
<text text-anchor="start" x="-213.035" y="-228.8" font-family="Times,serif" font-size="14.00">_layout</text>
</g>
<!-- MetricsController -->
<g id="node16" class="node"><title>MetricsController</title>
<path fill="none" stroke="black" d="M266.845,-460C266.845,-460 359.155,-460 359.155,-460 365.155,-460 371.155,-466 371.155,-472 371.155,-472 371.155,-538 371.155,-538 371.155,-544 365.155,-550 359.155,-550 359.155,-550 266.845,-550 266.845,-550 260.845,-550 254.845,-544 254.845,-538 254.845,-538 254.845,-472 254.845,-472 254.845,-466 260.845,-460 266.845,-460"/>
<text text-anchor="middle" x="313" y="-534.8" font-family="Times,serif" font-size="14.00">MetricsController</text>
<polyline fill="none" stroke="black" points="254.845,-528 371.155,-528 "/>
<text text-anchor="start" x="262.845" y="-512.8" font-family="Times,serif" font-size="14.00">index</text>
<polyline fill="none" stroke="black" points="254.845,-506 371.155,-506 "/>
<polyline fill="none" stroke="black" points="254.845,-482 371.155,-482 "/>
<text text-anchor="start" x="262.845" y="-466.8" font-family="Times,serif" font-size="14.00">_layout</text>
</g>
<!-- MiscellaneousController -->
<g id="node17" class="node"><title>MiscellaneousController</title>
<path fill="none" stroke="black" d="M-72.9829,169C-72.9829,169 58.9829,169 58.9829,169 64.9829,169 70.9829,163 70.9829,157 70.9829,157 70.9829,-133 70.9829,-133 70.9829,-139 64.9829,-145 58.9829,-145 58.9829,-145 -72.9829,-145 -72.9829,-145 -78.9829,-145 -84.9829,-139 -84.9829,-133 -84.9829,-133 -84.9829,157 -84.9829,157 -84.9829,163 -78.9829,169 -72.9829,169"/>
<text text-anchor="middle" x="-7" y="-129.8" font-family="Times,serif" font-size="14.00">MiscellaneousController</text>
<polyline fill="none" stroke="black" points="-84.9829,-123 70.9829,-123 "/>
<text text-anchor="start" x="-76.9829" y="-107.8" font-family="Times,serif" font-size="14.00">agile_board</text>
<text text-anchor="start" x="-76.9829" y="-93.8" font-family="Times,serif" font-size="14.00">chat_view</text>
<text text-anchor="start" x="-76.9829" y="-79.8" font-family="Times,serif" font-size="14.00">codee_ditor</text>
<text text-anchor="start" x="-76.9829" y="-65.8" font-family="Times,serif" font-size="14.00">diff</text>
<text text-anchor="start" x="-76.9829" y="-51.8" font-family="Times,serif" font-size="14.00">forum_post_view</text>
<text text-anchor="start" x="-76.9829" y="-37.8" font-family="Times,serif" font-size="14.00">forum_view</text>
<text text-anchor="start" x="-76.9829" y="-23.8" font-family="Times,serif" font-size="14.00">google_maps</text>
<text text-anchor="start" x="-76.9829" y="-9.8" font-family="Times,serif" font-size="14.00">idle_timer</text>
<text text-anchor="start" x="-76.9829" y="4.2" font-family="Times,serif" font-size="14.00">live_favicon</text>
<text text-anchor="start" x="-76.9829" y="18.2" font-family="Times,serif" font-size="14.00">modal_window</text>
<text text-anchor="start" x="-76.9829" y="32.2" font-family="Times,serif" font-size="14.00">nestablelist</text>
<text text-anchor="start" x="-76.9829" y="46.2" font-family="Times,serif" font-size="14.00">notification</text>
<text text-anchor="start" x="-76.9829" y="60.2" font-family="Times,serif" font-size="14.00">spinners</text>
<text text-anchor="start" x="-76.9829" y="74.2" font-family="Times,serif" font-size="14.00">sweet_alert</text>
<text text-anchor="start" x="-76.9829" y="88.2" font-family="Times,serif" font-size="14.00">timeline_second_version</text>
<text text-anchor="start" x="-76.9829" y="102.2" font-family="Times,serif" font-size="14.00">tree_view</text>
<text text-anchor="start" x="-76.9829" y="116.2" font-family="Times,serif" font-size="14.00">validation</text>
<polyline fill="none" stroke="black" points="-84.9829,123 70.9829,123 "/>
<polyline fill="none" stroke="black" points="-84.9829,147 70.9829,147 "/>
<text text-anchor="start" x="-76.9829" y="162.2" font-family="Times,serif" font-size="14.00">_layout</text>
</g>
<!-- PagesController -->
<g id="node18" class="node"><title>PagesController</title>
<path fill="none" stroke="black" d="M-56.0796,-188C-56.0796,-188 54.0796,-188 54.0796,-188 60.0796,-188 66.0796,-194 66.0796,-200 66.0796,-200 66.0796,-406 66.0796,-406 66.0796,-412 60.0796,-418 54.0796,-418 54.0796,-418 -56.0796,-418 -56.0796,-418 -62.0796,-418 -68.0796,-412 -68.0796,-406 -68.0796,-406 -68.0796,-200 -68.0796,-200 -68.0796,-194 -62.0796,-188 -56.0796,-188"/>
<text text-anchor="middle" x="-1" y="-402.8" font-family="Times,serif" font-size="14.00">PagesController</text>
<polyline fill="none" stroke="black" points="-68.0796,-396 66.0796,-396 "/>
<text text-anchor="start" x="-60.0796" y="-380.8" font-family="Times,serif" font-size="14.00">empty_page</text>
<text text-anchor="start" x="-60.0796" y="-366.8" font-family="Times,serif" font-size="14.00">forgot_password</text>
<text text-anchor="start" x="-60.0796" y="-352.8" font-family="Times,serif" font-size="14.00">internal_server_error</text>
<text text-anchor="start" x="-60.0796" y="-338.8" font-family="Times,serif" font-size="14.00">invoice</text>
<text text-anchor="start" x="-60.0796" y="-324.8" font-family="Times,serif" font-size="14.00">invoice_print</text>
<text text-anchor="start" x="-60.0796" y="-310.8" font-family="Times,serif" font-size="14.00">lockscreen</text>
<text text-anchor="start" x="-60.0796" y="-296.8" font-family="Times,serif" font-size="14.00">login</text>
<text text-anchor="start" x="-60.0796" y="-282.8" font-family="Times,serif" font-size="14.00">login_2</text>
<text text-anchor="start" x="-60.0796" y="-268.8" font-family="Times,serif" font-size="14.00">not_found_error</text>
<text text-anchor="start" x="-60.0796" y="-254.8" font-family="Times,serif" font-size="14.00">register</text>
<text text-anchor="start" x="-60.0796" y="-240.8" font-family="Times,serif" font-size="14.00">search_results</text>
<polyline fill="none" stroke="black" points="-68.0796,-234 66.0796,-234 "/>
<polyline fill="none" stroke="black" points="-68.0796,-210 66.0796,-210 "/>
<text text-anchor="start" x="-60.0796" y="-194.8" font-family="Times,serif" font-size="14.00">_layout</text>
</g>
<!-- Patients::ConsultsController -->
<g id="node19" class="node"><title>Patients::ConsultsController</title>
<path fill="none" stroke="black" d="M283.666,271C283.666,271 434.334,271 434.334,271 440.334,271 446.334,265 446.334,259 446.334,259 446.334,137 446.334,137 446.334,131 440.334,125 434.334,125 434.334,125 283.666,125 283.666,125 277.666,125 271.666,131 271.666,137 271.666,137 271.666,259 271.666,259 271.666,265 277.666,271 283.666,271"/>
<text text-anchor="middle" x="359" y="140.2" font-family="Times,serif" font-size="14.00">Patients::ConsultsController</text>
<polyline fill="none" stroke="black" points="271.666,147 446.334,147 "/>
<text text-anchor="start" x="279.666" y="162.2" font-family="Times,serif" font-size="14.00">create</text>
<text text-anchor="start" x="279.666" y="176.2" font-family="Times,serif" font-size="14.00">index</text>
<text text-anchor="start" x="279.666" y="190.2" font-family="Times,serif" font-size="14.00">new</text>
<text text-anchor="start" x="279.666" y="204.2" font-family="Times,serif" font-size="14.00">show</text>
<polyline fill="none" stroke="black" points="271.666,211 446.334,211 "/>
<polyline fill="none" stroke="black" points="271.666,235 446.334,235 "/>
<text text-anchor="start" x="279.666" y="250.2" font-family="Times,serif" font-size="14.00">_layout</text>
<text text-anchor="start" x="279.666" y="264.2" font-family="Times,serif" font-size="14.00">consult_params</text>
</g>
<!-- Patients::SessionsController -->
<g id="node20" class="node"><title>Patients::SessionsController</title>
<path fill="none" stroke="black" d="M284.055,84C284.055,84 433.945,84 433.945,84 439.945,84 445.945,78 445.945,72 445.945,72 445.945,-22 445.945,-22 445.945,-28 439.945,-34 433.945,-34 433.945,-34 284.055,-34 284.055,-34 278.055,-34 272.055,-28 272.055,-22 272.055,-22 272.055,72 272.055,72 272.055,78 278.055,84 284.055,84"/>
<text text-anchor="middle" x="359" y="-18.8" font-family="Times,serif" font-size="14.00">Patients::SessionsController</text>
<polyline fill="none" stroke="black" points="272.055,-12 445.945,-12 "/>
<text text-anchor="start" x="280.055" y="3.2" font-family="Times,serif" font-size="14.00">create</text>
<text text-anchor="start" x="280.055" y="17.2" font-family="Times,serif" font-size="14.00">destroy</text>
<text text-anchor="start" x="280.055" y="31.2" font-family="Times,serif" font-size="14.00">new</text>
<polyline fill="none" stroke="black" points="272.055,38 445.945,38 "/>
<polyline fill="none" stroke="black" points="272.055,62 445.945,62 "/>
<text text-anchor="start" x="280.055" y="77.2" font-family="Times,serif" font-size="14.00">_layout</text>
</g>
<!-- PatientsController -->
<g id="node21" class="node"><title>PatientsController</title>
<path fill="none" stroke="black" d="M-361.938,373C-361.938,373 -268.062,373 -268.062,373 -262.062,373 -256.062,367 -256.062,361 -256.062,361 -256.062,225 -256.062,225 -256.062,219 -262.062,213 -268.062,213 -268.062,213 -361.938,213 -361.938,213 -367.938,213 -373.938,219 -373.938,225 -373.938,225 -373.938,361 -373.938,361 -373.938,367 -367.938,373 -361.938,373"/>
<text text-anchor="middle" x="-315" y="228.2" font-family="Times,serif" font-size="14.00">PatientsController</text>
<polyline fill="none" stroke="black" points="-373.938,235 -256.062,235 "/>
<text text-anchor="start" x="-365.938" y="250.2" font-family="Times,serif" font-size="14.00">create</text>
<text text-anchor="start" x="-365.938" y="264.2" font-family="Times,serif" font-size="14.00">dashboard</text>
<text text-anchor="start" x="-365.938" y="278.2" font-family="Times,serif" font-size="14.00">destroy</text>
<text text-anchor="start" x="-365.938" y="292.2" font-family="Times,serif" font-size="14.00">new</text>
<text text-anchor="start" x="-365.938" y="306.2" font-family="Times,serif" font-size="14.00">update</text>
<polyline fill="none" stroke="black" points="-373.938,313 -256.062,313 "/>
<polyline fill="none" stroke="black" points="-373.938,337 -256.062,337 "/>
<text text-anchor="start" x="-365.938" y="352.2" font-family="Times,serif" font-size="14.00">_layout</text>
<text text-anchor="start" x="-365.938" y="366.2" font-family="Times,serif" font-size="14.00">patient_params</text>
</g>
<!-- TablesController -->
<g id="node22" class="node"><title>TablesController</title>
<path fill="none" stroke="black" d="M-361.942,-1C-361.942,-1 -276.058,-1 -276.058,-1 -270.058,-1 -264.058,-7 -264.058,-13 -264.058,-13 -264.058,-121 -264.058,-121 -264.058,-127 -270.058,-133 -276.058,-133 -276.058,-133 -361.942,-133 -361.942,-133 -367.942,-133 -373.942,-127 -373.942,-121 -373.942,-121 -373.942,-13 -373.942,-13 -373.942,-7 -367.942,-1 -361.942,-1"/>
<text text-anchor="middle" x="-319" y="-117.8" font-family="Times,serif" font-size="14.00">TablesController</text>
<polyline fill="none" stroke="black" points="-373.942,-111 -264.058,-111 "/>
<text text-anchor="start" x="-365.942" y="-95.8" font-family="Times,serif" font-size="14.00">data_tables</text>
<text text-anchor="start" x="-365.942" y="-81.8" font-family="Times,serif" font-size="14.00">foo_tables</text>
<text text-anchor="start" x="-365.942" y="-67.8" font-family="Times,serif" font-size="14.00">jqgrid</text>
<text text-anchor="start" x="-365.942" y="-53.8" font-family="Times,serif" font-size="14.00">static_tables</text>
<polyline fill="none" stroke="black" points="-373.942,-47 -264.058,-47 "/>
<polyline fill="none" stroke="black" points="-373.942,-23 -264.058,-23 "/>
<text text-anchor="start" x="-365.942" y="-7.8" font-family="Times,serif" font-size="14.00">_layout</text>
</g>
<!-- UielementsController -->
<g id="node23" class="node"><title>UielementsController</title>
<path fill="none" stroke="black" d="M232.517,-222C232.517,-222 357.483,-222 357.483,-222 363.483,-222 369.483,-228 369.483,-234 369.483,-234 369.483,-412 369.483,-412 369.483,-418 363.483,-424 357.483,-424 357.483,-424 232.517,-424 232.517,-424 226.517,-424 220.517,-418 220.517,-412 220.517,-412 220.517,-234 220.517,-234 220.517,-228 226.517,-222 232.517,-222"/>
<text text-anchor="middle" x="295" y="-408.8" font-family="Times,serif" font-size="14.00">UielementsController</text>
<polyline fill="none" stroke="black" points="220.517,-402 369.483,-402 "/>
<text text-anchor="start" x="228.517" y="-386.8" font-family="Times,serif" font-size="14.00">badges_labels_progress</text>
<text text-anchor="start" x="228.517" y="-372.8" font-family="Times,serif" font-size="14.00">buttons</text>
<text text-anchor="start" x="228.517" y="-358.8" font-family="Times,serif" font-size="14.00">draggable_panels</text>
<text text-anchor="start" x="228.517" y="-344.8" font-family="Times,serif" font-size="14.00">icons</text>
<text text-anchor="start" x="228.517" y="-330.8" font-family="Times,serif" font-size="14.00">notifications_tooltips</text>
<text text-anchor="start" x="228.517" y="-316.8" font-family="Times,serif" font-size="14.00">tables_panels</text>
<text text-anchor="start" x="228.517" y="-302.8" font-family="Times,serif" font-size="14.00">tabs</text>
<text text-anchor="start" x="228.517" y="-288.8" font-family="Times,serif" font-size="14.00">typography</text>
<text text-anchor="start" x="228.517" y="-274.8" font-family="Times,serif" font-size="14.00">video</text>
<polyline fill="none" stroke="black" points="220.517,-268 369.483,-268 "/>
<polyline fill="none" stroke="black" points="220.517,-244 369.483,-244 "/>
<text text-anchor="start" x="228.517" y="-228.8" font-family="Times,serif" font-size="14.00">_layout</text>
</g>
<!-- WelcomeController -->
<g id="node24" class="node"><title>WelcomeController</title>
<path fill="none" stroke="black" d="M-209.033,-426C-209.033,-426 -106.967,-426 -106.967,-426 -100.967,-426 -94.9673,-432 -94.9673,-438 -94.9673,-438 -94.9673,-504 -94.9673,-504 -94.9673,-510 -100.967,-516 -106.967,-516 -106.967,-516 -209.033,-516 -209.033,-516 -215.033,-516 -221.033,-510 -221.033,-504 -221.033,-504 -221.033,-438 -221.033,-438 -221.033,-432 -215.033,-426 -209.033,-426"/>
<text text-anchor="middle" x="-158" y="-500.8" font-family="Times,serif" font-size="14.00">WelcomeController</text>
<polyline fill="none" stroke="black" points="-221.033,-494 -94.9673,-494 "/>
<text text-anchor="start" x="-213.033" y="-478.8" font-family="Times,serif" font-size="14.00">index</text>
<polyline fill="none" stroke="black" points="-221.033,-472 -94.9673,-472 "/>
<polyline fill="none" stroke="black" points="-221.033,-448 -94.9673,-448 "/>
<text text-anchor="start" x="-213.033" y="-432.8" font-family="Times,serif" font-size="14.00">_layout</text>
</g>
<!-- WidgetsController -->
<g id="node25" class="node"><title>WidgetsController</title>
<path fill="none" stroke="black" d="M-208.823,441C-208.823,441 -113.177,441 -113.177,441 -107.177,441 -101.177,435 -101.177,429 -101.177,429 -101.177,363 -101.177,363 -101.177,357 -107.177,351 -113.177,351 -113.177,351 -208.823,351 -208.823,351 -214.823,351 -220.823,357 -220.823,363 -220.823,363 -220.823,429 -220.823,429 -220.823,435 -214.823,441 -208.823,441"/>
<text text-anchor="middle" x="-161" y="366.2" font-family="Times,serif" font-size="14.00">WidgetsController</text>
<polyline fill="none" stroke="black" points="-220.823,373 -101.177,373 "/>
<text text-anchor="start" x="-212.823" y="388.2" font-family="Times,serif" font-size="14.00">index</text>
<polyline fill="none" stroke="black" points="-220.823,395 -101.177,395 "/>
<polyline fill="none" stroke="black" points="-220.823,419 -101.177,419 "/>
<text text-anchor="start" x="-212.823" y="434.2" font-family="Times,serif" font-size="14.00">_layout</text>
</g>
</g>
</svg>
