<?xml version="1.0" encoding="UTF-8" standalone="no"?>
<!DOCTYPE svg PUBLIC "-//W3C//DTD SVG 1.1//EN"
 "http://www.w3.org/Graphics/SVG/1.1/DTD/svg11.dtd">
<!-- Generated by graphviz version 2.38.0 (20140413.2041)
 -->
<!-- Title: models_diagram Pages: 1 -->
<svg width="406pt" height="225pt"
 viewBox="0.00 0.00 405.69 225.00" xmlns="http://www.w3.org/2000/svg" xmlns:xlink="http://www.w3.org/1999/xlink">
<g id="graph0" class="graph" transform="scale(1 1) rotate(0) translate(4 221)">
<title>models_diagram</title>
<polygon fill="none" stroke="none" points="-4,4 -4,-221 401.688,-221 401.688,4 -4,4"/>
<!-- _diagram_info -->
<g id="node1" class="node"><title>_diagram_info</title>
<text text-anchor="start" x="8" y="-202.6" font-family="Times,serif" font-size="13.00">Models diagram</text>
<text text-anchor="start" x="8" y="-189.6" font-family="Times,serif" font-size="13.00">Date: Aug 30 2015 &#45; 14:00</text>
<text text-anchor="start" x="8" y="-176.6" font-family="Times,serif" font-size="13.00">Migration version: 20150808025510</text>
<text text-anchor="start" x="8" y="-163.6" font-family="Times,serif" font-size="13.00">Generated by RailRoady 1.3.1</text>
<text text-anchor="start" x="8" y="-150.6" font-family="Times,serif" font-size="13.00">http://railroady.prestonlee.com</text>
</g>
<!-- Consult -->
<g id="node2" class="node"><title>Consult</title>
<ellipse fill="none" stroke="black" cx="290.688" cy="-18" rx="37.7525" ry="18"/>
<text text-anchor="middle" x="290.688" y="-13.8" font-family="Times,serif" font-size="14.00">Consult</text>
</g>
<!-- Contact -->
<g id="node3" class="node"><title>Contact</title>
<polygon fill="none" stroke="black" points="371.234,-198.5 312.141,-198.5 312.141,-162.5 371.234,-162.5 371.234,-198.5"/>
<text text-anchor="middle" x="341.688" y="-176.3" font-family="Times,serif" font-size="14.00">Contact</text>
</g>
<!-- Doctor -->
<g id="node4" class="node"><title>Doctor</title>
<ellipse fill="none" stroke="black" cx="259.688" cy="-180.5" rx="34.8285" ry="18"/>
<text text-anchor="middle" x="259.688" y="-176.3" font-family="Times,serif" font-size="14.00">Doctor</text>
</g>
<!-- Doctor&#45;&gt;Consult -->
<g id="edge1" class="edge"><title>Doctor&#45;&gt;Consult</title>
<path fill="none" stroke="#1c1950" d="M250.47,-154.904C243.565,-132.635 236.853,-99.2445 246.688,-72 250.729,-60.8042 258.279,-50.3026 265.999,-41.6478"/>
<ellipse fill="none" stroke="#1c1950" cx="251.742" cy="-158.774" rx="4.00001" ry="4.00001"/>
<polygon fill="#1c1950" stroke="#1c1950" points="266.145,-41.4945 276.299,-37.3545 269.592,-37.8731 273.04,-34.2517 273.04,-34.2517 273.04,-34.2517 269.592,-37.8731 269.78,-31.1489 266.145,-41.4945 266.145,-41.4945"/>
</g>
<!-- Patient -->
<g id="node5" class="node"><title>Patient</title>
<ellipse fill="none" stroke="black" cx="290.688" cy="-90" rx="34.8371" ry="18"/>
<text text-anchor="middle" x="290.688" y="-85.8" font-family="Times,serif" font-size="14.00">Patient</text>
</g>
<!-- Doctor&#45;&gt;Patient -->
<g id="edge2" class="edge"><title>Doctor&#45;&gt;Patient</title>
<path fill="none" stroke="#b82002" d="M268.993,-152.936C272.9,-141.78 277.437,-128.828 281.349,-117.662"/>
<polygon fill="#b82002" stroke="#b82002" points="268.971,-152.999 261.418,-160.949 267.318,-157.717 265.665,-162.436 265.665,-162.436 265.665,-162.436 267.318,-157.717 269.912,-163.924 268.971,-152.999 268.971,-152.999"/>
<polygon fill="#b82002" stroke="#b82002" points="281.423,-117.449 288.976,-109.499 283.076,-112.73 284.729,-108.011 284.729,-108.011 284.729,-108.011 283.076,-112.73 280.482,-106.524 281.423,-117.449 281.423,-117.449"/>
</g>
<!-- Patient&#45;&gt;Consult -->
<g id="edge3" class="edge"><title>Patient&#45;&gt;Consult</title>
<path fill="none" stroke="#97c79d" d="M290.688,-63.6398C290.688,-58.0629 290.688,-52.1319 290.688,-46.4761"/>
<ellipse fill="none" stroke="#97c79d" cx="290.688" cy="-67.6966" rx="4" ry="4"/>
<polygon fill="#97c79d" stroke="#97c79d" points="290.688,-46.1043 295.188,-36.1043 290.688,-41.1043 290.688,-36.1043 290.688,-36.1043 290.688,-36.1043 290.688,-41.1043 286.188,-36.1044 290.688,-46.1043 290.688,-46.1043"/>
</g>
<!-- User -->
<g id="node6" class="node"><title>User</title>
<ellipse fill="none" stroke="black" cx="370.688" cy="-90" rx="27" ry="18"/>
<text text-anchor="middle" x="370.688" y="-85.8" font-family="Times,serif" font-size="14.00">User</text>
</g>
<!-- User&#45;&gt;Consult -->
<g id="edge4" class="edge"><title>User&#45;&gt;Consult</title>
<path fill="none" stroke="#f302b2" d="M348.529,-69.6111C338.369,-60.7208 326.277,-50.1403 315.782,-40.9576"/>
<ellipse fill="none" stroke="#f302b2" cx="351.872" cy="-72.5362" rx="4.00002" ry="4.00002"/>
<polygon fill="#f302b2" stroke="#f302b2" points="315.653,-40.8442 311.09,-30.8725 311.89,-37.5516 308.127,-34.2591 308.127,-34.2591 308.127,-34.2591 311.89,-37.5516 305.163,-37.6457 315.653,-40.8442 315.653,-40.8442"/>
</g>
</g>
</svg>
