<?xml version="1.0" encoding="UTF-8" standalone="no"?>
<!DOCTYPE svg PUBLIC "-//W3C//DTD SVG 1.1//EN"
 "http://www.w3.org/Graphics/SVG/1.1/DTD/svg11.dtd">
<!-- Generated by graphviz version 2.38.0 (20140413.2041)
 -->
<!-- Title: models_diagram Pages: 1 -->
<svg width="603pt" height="607pt"
 viewBox="0.00 0.00 602.75 607.00" xmlns="http://www.w3.org/2000/svg" xmlns:xlink="http://www.w3.org/1999/xlink">
<g id="graph0" class="graph" transform="scale(1 1) rotate(0) translate(4 603)">
<title>models_diagram</title>
<polygon fill="none" stroke="none" points="-4,4 -4,-603 598.752,-603 598.752,4 -4,4"/>
<!-- _diagram_info -->
<g id="node1" class="node"><title>_diagram_info</title>
<text text-anchor="start" x="8" y="-542.6" font-family="Times,serif" font-size="13.00">Models diagram</text>
<text text-anchor="start" x="8" y="-529.6" font-family="Times,serif" font-size="13.00">Date: Aug 30 2015 &#45; 14:00</text>
<text text-anchor="start" x="8" y="-516.6" font-family="Times,serif" font-size="13.00">Migration version: 20150808025510</text>
<text text-anchor="start" x="8" y="-503.6" font-family="Times,serif" font-size="13.00">Generated by RailRoady 1.3.1</text>
<text text-anchor="start" x="8" y="-490.6" font-family="Times,serif" font-size="13.00">http://railroady.prestonlee.com</text>
</g>
<!-- Consult -->
<g id="node2" class="node"><title>Consult</title>
<path fill="none" stroke="black" d="M295.62,-0.5C295.62,-0.5 407.755,-0.5 407.755,-0.5 413.755,-0.5 419.755,-6.5 419.755,-12.5 419.755,-12.5 419.755,-200.5 419.755,-200.5 419.755,-206.5 413.755,-212.5 407.755,-212.5 407.755,-212.5 295.62,-212.5 295.62,-212.5 289.62,-212.5 283.62,-206.5 283.62,-200.5 283.62,-200.5 283.62,-12.5 283.62,-12.5 283.62,-6.5 289.62,-0.5 295.62,-0.5"/>
<text text-anchor="middle" x="351.688" y="-197.3" font-family="Times,serif" font-size="14.00">Consult</text>
<polyline fill="none" stroke="black" points="283.62,-190.5 419.755,-190.5 "/>
<text text-anchor="start" x="291.62" y="-175.3" font-family="Times,serif" font-size="14.00">id :integer</text>
<text text-anchor="start" x="291.62" y="-161.3" font-family="Times,serif" font-size="14.00">date :date</text>
<text text-anchor="start" x="291.62" y="-147.3" font-family="Times,serif" font-size="14.00">time :time</text>
<text text-anchor="start" x="291.62" y="-133.3" font-family="Times,serif" font-size="14.00">sessionId :text</text>
<text text-anchor="start" x="291.62" y="-119.3" font-family="Times,serif" font-size="14.00">purpose_descrip :text</text>
<text text-anchor="start" x="291.62" y="-105.3" font-family="Times,serif" font-size="14.00">duration :text</text>
<text text-anchor="start" x="291.62" y="-91.3" font-family="Times,serif" font-size="14.00">medications :text</text>
<text text-anchor="start" x="291.62" y="-77.3" font-family="Times,serif" font-size="14.00">allergies :text</text>
<text text-anchor="start" x="291.62" y="-63.3" font-family="Times,serif" font-size="14.00">symptoms :text</text>
<text text-anchor="start" x="291.62" y="-49.3" font-family="Times,serif" font-size="14.00">doctor_id :integer</text>
<text text-anchor="start" x="291.62" y="-35.3" font-family="Times,serif" font-size="14.00">patient_id :integer</text>
<text text-anchor="start" x="291.62" y="-21.3" font-family="Times,serif" font-size="14.00">created_at :datetime</text>
<text text-anchor="start" x="291.62" y="-7.3" font-family="Times,serif" font-size="14.00">updated_at :datetime</text>
</g>
<!-- Contact -->
<g id="node3" class="node"><title>Contact</title>
<polygon fill="none" stroke="black" points="393.915,-498.5 393.915,-542.5 453.46,-542.5 453.46,-498.5 393.915,-498.5"/>
<text text-anchor="middle" x="423.688" y="-527.3" font-family="Times,serif" font-size="14.00">Contact</text>
<polyline fill="none" stroke="black" points="393.915,-520.5 453.46,-520.5 "/>
<text text-anchor="middle" x="423.688" y="-505.3" font-family="Times,serif" font-size="14.00"> </text>
</g>
<!-- Doctor -->
<g id="node4" class="node"><title>Doctor</title>
<path fill="none" stroke="black" d="M237.624,-442.5C237.624,-442.5 363.752,-442.5 363.752,-442.5 369.752,-442.5 375.752,-448.5 375.752,-454.5 375.752,-454.5 375.752,-586.5 375.752,-586.5 375.752,-592.5 369.752,-598.5 363.752,-598.5 363.752,-598.5 237.624,-598.5 237.624,-598.5 231.624,-598.5 225.624,-592.5 225.624,-586.5 225.624,-586.5 225.624,-454.5 225.624,-454.5 225.624,-448.5 231.624,-442.5 237.624,-442.5"/>
<text text-anchor="middle" x="300.688" y="-583.3" font-family="Times,serif" font-size="14.00">Doctor</text>
<polyline fill="none" stroke="black" points="225.624,-576.5 375.752,-576.5 "/>
<text text-anchor="start" x="233.624" y="-561.3" font-family="Times,serif" font-size="14.00">id :integer</text>
<text text-anchor="start" x="233.624" y="-547.3" font-family="Times,serif" font-size="14.00">type :string</text>
<text text-anchor="start" x="233.624" y="-533.3" font-family="Times,serif" font-size="14.00">name :string</text>
<text text-anchor="start" x="233.624" y="-519.3" font-family="Times,serif" font-size="14.00">email :string</text>
<text text-anchor="start" x="233.624" y="-505.3" font-family="Times,serif" font-size="14.00">phone :string</text>
<text text-anchor="start" x="233.624" y="-491.3" font-family="Times,serif" font-size="14.00">password_digest :string</text>
<text text-anchor="start" x="233.624" y="-477.3" font-family="Times,serif" font-size="14.00">remember_token :string</text>
<text text-anchor="start" x="233.624" y="-463.3" font-family="Times,serif" font-size="14.00">created_at :datetime</text>
<text text-anchor="start" x="233.624" y="-449.3" font-family="Times,serif" font-size="14.00">updated_at :datetime</text>
</g>
<!-- Doctor&#45;&gt;Consult -->
<g id="edge1" class="edge"><title>Doctor&#45;&gt;Consult</title>
<path fill="none" stroke="#1f89e5" d="M273.679,-434.436C260.62,-380.531 251.009,-309.769 267.688,-249 270.641,-238.239 274.649,-227.469 279.32,-216.941"/>
<ellipse fill="none" stroke="#1f89e5" cx="274.662" cy="-438.382" rx="4.00001" ry="4.00001"/>
<polygon fill="#1f89e5" stroke="#1f89e5" points="279.373,-216.827 287.667,-209.654 281.479,-212.293 283.586,-207.758 283.586,-207.758 283.586,-207.758 281.479,-212.293 279.505,-205.862 279.373,-216.827 279.373,-216.827"/>
</g>
<!-- Patient -->
<g id="node5" class="node"><title>Patient</title>
<path fill="none" stroke="black" d="M288.624,-249.5C288.624,-249.5 414.752,-249.5 414.752,-249.5 420.752,-249.5 426.752,-255.5 426.752,-261.5 426.752,-261.5 426.752,-393.5 426.752,-393.5 426.752,-399.5 420.752,-405.5 414.752,-405.5 414.752,-405.5 288.624,-405.5 288.624,-405.5 282.624,-405.5 276.624,-399.5 276.624,-393.5 276.624,-393.5 276.624,-261.5 276.624,-261.5 276.624,-255.5 282.624,-249.5 288.624,-249.5"/>
<text text-anchor="middle" x="351.688" y="-390.3" font-family="Times,serif" font-size="14.00">Patient</text>
<polyline fill="none" stroke="black" points="276.624,-383.5 426.752,-383.5 "/>
<text text-anchor="start" x="284.624" y="-368.3" font-family="Times,serif" font-size="14.00">id :integer</text>
<text text-anchor="start" x="284.624" y="-354.3" font-family="Times,serif" font-size="14.00">type :string</text>
<text text-anchor="start" x="284.624" y="-340.3" font-family="Times,serif" font-size="14.00">name :string</text>
<text text-anchor="start" x="284.624" y="-326.3" font-family="Times,serif" font-size="14.00">email :string</text>
<text text-anchor="start" x="284.624" y="-312.3" font-family="Times,serif" font-size="14.00">phone :string</text>
<text text-anchor="start" x="284.624" y="-298.3" font-family="Times,serif" font-size="14.00">password_digest :string</text>
<text text-anchor="start" x="284.624" y="-284.3" font-family="Times,serif" font-size="14.00">remember_token :string</text>
<text text-anchor="start" x="284.624" y="-270.3" font-family="Times,serif" font-size="14.00">created_at :datetime</text>
<text text-anchor="start" x="284.624" y="-256.3" font-family="Times,serif" font-size="14.00">updated_at :datetime</text>
</g>
<!-- Doctor&#45;&gt;Patient -->
<g id="edge2" class="edge"><title>Doctor&#45;&gt;Patient</title>
<path fill="none" stroke="#871bd4" d="M323.881,-432.639C325.385,-427.006 326.9,-421.332 328.405,-415.698"/>
<polygon fill="#871bd4" stroke="#871bd4" points="323.864,-432.702 316.937,-441.203 322.574,-437.533 321.284,-442.364 321.284,-442.364 321.284,-442.364 322.574,-437.533 325.632,-443.524 323.864,-432.702 323.864,-432.702"/>
<polygon fill="#871bd4" stroke="#871bd4" points="328.517,-415.275 335.445,-406.775 329.807,-410.445 331.097,-405.614 331.097,-405.614 331.097,-405.614 329.807,-410.445 326.749,-404.453 328.517,-415.275 328.517,-415.275"/>
</g>
<!-- Patient&#45;&gt;Consult -->
<g id="edge3" class="edge"><title>Patient&#45;&gt;Consult</title>
<path fill="none" stroke="#3ea781" d="M351.688,-241.176C351.688,-235.21 351.688,-229.144 351.688,-223.052"/>
<ellipse fill="none" stroke="#3ea781" cx="351.688" cy="-245.289" rx="4" ry="4"/>
<polygon fill="#3ea781" stroke="#3ea781" points="351.688,-222.79 356.188,-212.79 351.688,-217.79 351.688,-212.79 351.688,-212.79 351.688,-212.79 351.688,-217.79 347.188,-212.79 351.688,-222.79 351.688,-222.79"/>
</g>
<!-- User -->
<g id="node6" class="node"><title>User</title>
<path fill="none" stroke="black" d="M456.624,-249.5C456.624,-249.5 582.752,-249.5 582.752,-249.5 588.752,-249.5 594.752,-255.5 594.752,-261.5 594.752,-261.5 594.752,-393.5 594.752,-393.5 594.752,-399.5 588.752,-405.5 582.752,-405.5 582.752,-405.5 456.624,-405.5 456.624,-405.5 450.624,-405.5 444.624,-399.5 444.624,-393.5 444.624,-393.5 444.624,-261.5 444.624,-261.5 444.624,-255.5 450.624,-249.5 456.624,-249.5"/>
<text text-anchor="middle" x="519.688" y="-390.3" font-family="Times,serif" font-size="14.00">User</text>
<polyline fill="none" stroke="black" points="444.624,-383.5 594.752,-383.5 "/>
<text text-anchor="start" x="452.624" y="-368.3" font-family="Times,serif" font-size="14.00">id :integer</text>
<text text-anchor="start" x="452.624" y="-354.3" font-family="Times,serif" font-size="14.00">type :string</text>
<text text-anchor="start" x="452.624" y="-340.3" font-family="Times,serif" font-size="14.00">name :string</text>
<text text-anchor="start" x="452.624" y="-326.3" font-family="Times,serif" font-size="14.00">email :string</text>
<text text-anchor="start" x="452.624" y="-312.3" font-family="Times,serif" font-size="14.00">phone :string</text>
<text text-anchor="start" x="452.624" y="-298.3" font-family="Times,serif" font-size="14.00">password_digest :string</text>
<text text-anchor="start" x="452.624" y="-284.3" font-family="Times,serif" font-size="14.00">remember_token :string</text>
<text text-anchor="start" x="452.624" y="-270.3" font-family="Times,serif" font-size="14.00">created_at :datetime</text>
<text text-anchor="start" x="452.624" y="-256.3" font-family="Times,serif" font-size="14.00">updated_at :datetime</text>
</g>
<!-- User&#45;&gt;Consult -->
<g id="edge4" class="edge"><title>User&#45;&gt;Consult</title>
<path fill="none" stroke="#1b6b8b" d="M455.494,-242.819C445.835,-230.228 435.805,-217.153 425.956,-204.314"/>
<ellipse fill="none" stroke="#1b6b8b" cx="458.023" cy="-246.115" rx="4.00002" ry="4.00002"/>
<polygon fill="#1b6b8b" stroke="#1b6b8b" points="425.939,-204.292 423.423,-193.618 422.896,-200.325 419.852,-196.357 419.852,-196.357 419.852,-196.357 422.896,-200.325 416.282,-199.096 425.939,-204.292 425.939,-204.292"/>
</g>
</g>
</svg>
